<?xml version="1.0" encoding="utf-8"?>
<!-- Generator: Adobe Illustrator 22.0.0, SVG Export Plug-In . SVG Version: 6.00 Build 0)  -->
<svg version="1.1" id="Layer_1" xmlns="http://www.w3.org/2000/svg" xmlns:xlink="http://www.w3.org/1999/xlink" x="0px" y="0px"
	 viewBox="0 0 48.7 44.5" style="enable-background:new 0 0 48.7 44.5;" xml:space="preserve">
<style type="text/css">
	.st0{fill:#0A1E2B;}
</style>
<path class="st0" d="M47.3,8.3H7.6L7,1.3C6.9,0.5,6.3,0,5.6,0H1.4C0.6,0,0,0.6,0,1.4c0,0.8,0.6,1.4,1.4,1.4h2.3c0,0,0.1,0,0.1,0h0.5
	l0.1,0.6c0,0.3,0.1,0.6,0.1,0.8l2.3,25.5c0.2,1.9,1.2,3.7,2.7,4.9L9.9,35l-0.4,0.5c-1.3,1.7-1.6,3.9-0.6,5.9c1,2,2.8,3.1,5,3.1
	c1.8,0,3.5-0.9,4.6-2.4c1.1-1.5,1.3-3.4,0.7-5.1l-0.3-0.9h13.1l-0.3,0.9c-0.6,1.7-0.4,3.6,0.7,5.1c1.1,1.5,2.7,2.4,4.6,2.4
	c3.1,0,5.6-2.5,5.6-5.6s-2.5-5.6-5.6-5.6H13.9c-1.8,0-3.4-1.1-4.1-2.7l-0.4-0.9l33.7-2c0.6,0,1.1-0.5,1.3-1.1l4.2-16.7
	c0.1-0.4,0-0.9-0.3-1.2S47.7,8.3,47.3,8.3z M36.9,36.2c1.5,0,2.8,1.2,2.8,2.8c0,1.5-1.2,2.8-2.8,2.8c-1.5,0-2.8-1.2-2.8-2.8
	C34.1,37.4,35.3,36.2,36.9,36.2z M13.9,36.2c1.5,0,2.8,1.2,2.8,2.8c0,1.5-1.2,2.8-2.8,2.8c-1.5,0-2.8-1.2-2.8-2.8
	C11.2,37.4,12.4,36.2,13.9,36.2z M42,25.1L9.3,27L7.9,11.2h37.6L42,25.1z"/>
</svg>
