<?xml version="1.0" encoding="utf-8"?>
<!-- Generator: Adobe Illustrator 22.0.0, SVG Export Plug-In . SVG Version: 6.00 Build 0)  -->
<svg version="1.1" id="Layer_1" xmlns="http://www.w3.org/2000/svg" xmlns:xlink="http://www.w3.org/1999/xlink" x="0px" y="0px"
	 viewBox="0 0 29.8 22.7" style="enable-background:new 0 0 29.8 22.7;" xml:space="preserve">
<style type="text/css">
	.st0{fill:#0A1E2B;}
</style>
<path class="st0" d="M27.3,0H2.5C1.1,0,0,1.1,0,2.5v17.6c0,1.4,1.1,2.5,2.5,2.5h24.7c1.4,0,2.5-1.1,2.5-2.5V2.5
	C29.8,1.1,28.7,0,27.3,0z M27.1,1.6L27,1.7l-12,12l-0.1-0.1L2.7,1.6H27.1z M1.6,20V2.7l8.7,8.6l-0.1,0.1L1.6,20z M2.7,21.1l0.2-0.2
	l8.5-8.5l3,3c0.3,0.3,0.8,0.3,1.1,0l3-3l0.1,0.1l8.6,8.6H2.7z M28.2,20l-8.7-8.7l0.1-0.1l8.6-8.6V20z"/>
</svg>
