<?xml version="1.0" encoding="utf-8"?>
<!-- Generator: Adobe Illustrator 22.0.0, SVG Export Plug-In . SVG Version: 6.00 Build 0)  -->
<svg version="1.1" id="Layer_1" xmlns="http://www.w3.org/2000/svg" xmlns:xlink="http://www.w3.org/1999/xlink" x="0px" y="0px"
	 viewBox="0 0 55.2 52.2" style="enable-background:new 0 0 55.2 52.2;" xml:space="preserve">
<style type="text/css">
	.st0{fill:#0A1E2B;}
</style>
<g>
	<path class="st0" d="M14,33.4c0.1,0,0.2,0,0.3,0c0.2,0,0.4-0.1,0.6-0.2c0.6-0.3,0.8-1,0.4-1.6c-0.3-0.6-1-0.8-1.6-0.4
		c-0.3,0.2-0.5,0.4-0.5,0.7c-0.1,0.3,0,0.6,0.1,0.9C13.4,33.1,13.7,33.3,14,33.4z"/>
	<path class="st0" d="M41.6,19.6l2.2-3.4c0.2-0.4,0.3-0.8,0-1.2l-2.1-3.7c-0.2-0.4-0.6-0.6-1.1-0.6l-4.1,0.2l-3.9-6.8
		C32,3,31,2.4,29.8,2.4l0,0c-1.1,0-2.2,0.6-2.8,1.5l-14,17.9L3.8,27c-1.8,1-3,2.7-3.5,4.6c-0.5,2-0.3,4,0.8,5.8
		c1.9,3.2,5.9,4.6,9.3,3.3l5.4,9.3c0.6,1,1.5,1.7,2.7,2c0.4,0.1,0.8,0.2,1.2,0.2c0.8,0,1.5-0.2,2.2-0.6c1-0.6,1.7-1.5,2-2.7
		c0.3-1.1,0.1-2.3-0.4-3.3l-3.2-5.5l2.7-1.6c0.6-0.3,0.8-1,0.4-1.6L22,34.7l20.4-4c1.2-0.1,2.2-0.7,2.7-1.7c0.6-1,0.5-2.2,0-3.2
		L41.6,19.6z M37.9,13.1L40,13l1.4,2.5l-1.2,1.8L37.9,13.1z M41.9,28.4c-0.1,0-0.1,0-0.2,0L28.6,5.7c0.1-0.1,0.1-0.2,0.2-0.2
		c0.1-0.1,0.1-0.2,0.2-0.2c0.3-0.4,0.7-0.5,0.8-0.5c0.2,0,0.6,0.1,0.8,0.5l12.5,21.6c0.2,0.3,0.2,0.7,0,1c-0.2,0.3-0.5,0.5-0.8,0.5
		C42.1,28.3,42.1,28.4,41.9,28.4z M16,37.6l2.5,4.4c2,3.5,2.6,4.5,2.7,4.8l0,0.1l0,0c0.3,0.5,0.3,1,0.2,1.6c-0.1,0.5-0.5,1-1,1.2
		c-0.5,0.3-1,0.3-1.6,0.2c-0.5-0.1-1-0.5-1.2-1l-5.3-9.2L16,37.6z M15.1,22.8L27,7.6l12.3,21.3l-18.5,3.6L15.1,22.8z M20.7,37.1
		l-1.7,1l-1-1.7l1.7-1L20.7,37.1z M3.1,36.3c-0.5-0.8-0.7-1.7-0.7-2.6c0-1.9,1-3.6,2.6-4.6l8.3-4.8l5.3,9.1l-8.3,4.8
		C7.7,39.7,4.5,38.8,3.1,36.3z"/>
	<path class="st0" d="M9.3,36.5l1.9-1.1c0.6-0.3,0.8-1,0.4-1.6c-0.3-0.6-1-0.8-1.6-0.4l-1.9,1.1c-0.2,0.1-0.5,0.2-0.7,0.1
		c-0.3-0.1-0.5-0.2-0.6-0.5c-0.2-0.3-0.4-0.5-0.7-0.5c-0.3-0.1-0.6,0-0.9,0.1c-0.3,0.2-0.5,0.4-0.5,0.7s0,0.6,0.1,0.9
		C5.4,36.4,6.5,37,7.6,37C8.2,37,8.8,36.8,9.3,36.5z"/>
	<path class="st0" d="M55.1,5.2c-0.2-0.3-0.4-0.5-0.7-0.6c-0.3-0.1-0.6,0-0.9,0.1l-6,3.3c-0.6,0.3-0.8,1-0.5,1.6
		c0.2,0.3,0.4,0.5,0.7,0.6c0.1,0,0.2,0,0.3,0c0.2,0,0.4-0.1,0.6-0.1l6-3.3c0.3-0.2,0.5-0.4,0.6-0.7C55.2,5.8,55.2,5.4,55.1,5.2z"/>
	<path class="st0" d="M52.9,15.8l-4.2-1.1c-0.6-0.2-1.3,0.2-1.4,0.8c-0.1,0.3,0,0.6,0.1,0.9c0.2,0.3,0.4,0.5,0.7,0.5l4.2,1.1
		c0.1,0,0.2,0,0.3,0c0.5,0,1-0.3,1.1-0.9c0.1-0.3,0-0.6-0.1-0.9C53.5,16.1,53.2,15.9,52.9,15.8z"/>
	<path class="st0" d="M42.1,6.5c0.1,0,0.2,0,0.3,0c0.5,0,1-0.3,1.1-0.9l1.1-4.2c0.2-0.6-0.2-1.3-0.8-1.4c-0.6-0.2-1.3,0.2-1.4,0.8
		L41.2,5C41.1,5.6,41.4,6.3,42.1,6.5z"/>
</g>
</svg>
