<?xml version="1.0" encoding="utf-8"?>
<!-- Generator: Adobe Illustrator 22.0.0, SVG Export Plug-In . SVG Version: 6.00 Build 0)  -->
<svg version="1.1" id="Layer_1" xmlns="http://www.w3.org/2000/svg" xmlns:xlink="http://www.w3.org/1999/xlink" x="0px" y="0px"
	 viewBox="0 0 48.5 44.2" style="enable-background:new 0 0 48.5 44.2;" xml:space="preserve">
<style type="text/css">
	.st0{fill:#0A1E2B;}
</style>
<path class="st0" d="M47.3,31.1L31.9,4.4C30.3,1.6,27.5,0,24.3,0c-3.2,0-6.1,1.6-7.7,4.4L1.2,31.1c-1.6,2.7-1.6,6,0,8.7
	c1.6,2.7,4.4,4.4,7.5,4.4c3.1,0,6-1.7,7.6-4.4L24.2,26l7.9,13.8c1.6,2.7,4.5,4.4,7.6,4.4c3.1,0,6-1.6,7.5-4.4
	C48.9,37.1,48.9,33.8,47.3,31.1z M14,38.5c-1.1,1.9-3.1,3-5.3,3c-0.6,0-1.1-0.1-1.7-0.2c-1.8-0.5-3.3-1.8-4-3.6
	C2.4,36,2.5,34,3.5,32.4c1.7-2.9,5.4-3.9,8.3-2.2c1.4,0.8,2.4,2.1,2.8,3.7S14.8,37.1,14,38.5z M17.2,33L17,32.5
	c-1.4-4.1-5.6-6.5-9.8-5.7L6.6,27l9.3-16l0.2,0.6c0.3,0.8,0.3,0.8,3.4,6.3c0.8,1.4,1.9,3.2,3.2,5.5l0.1,0.1L17.2,33z M45.6,37
	c-0.4,1.6-1.4,2.9-2.8,3.7c-0.9,0.5-2,0.8-3,0.8c-0.5,0-1.1-0.1-1.6-0.2c-1.6-0.4-2.9-1.4-3.7-2.8L19.1,11.8c-1.4-2.4-1-5.3,1-7.3
	c2-2,4.8-2.3,7.1-1l0.1,0.1c1.6,0.9,1.6,0.9,12.7,20.1l5.1,8.8C45.8,33.8,46.1,35.4,45.6,37z"/>
</svg>
