<?xml version="1.0" encoding="utf-8"?>
<!-- Generator: Adobe Illustrator 22.0.0, SVG Export Plug-In . SVG Version: 6.00 Build 0)  -->
<svg version="1.1" id="Layer_1" xmlns="http://www.w3.org/2000/svg" xmlns:xlink="http://www.w3.org/1999/xlink" x="0px" y="0px"
	 viewBox="0 0 49.6 49.6" style="enable-background:new 0 0 49.6 49.6;" xml:space="preserve">
<style type="text/css">
	.st0{fill:#0A1E2B;}
</style>
<g>
	<path class="st0" d="M15.9,20.3c2.3,0,4.2-1.9,4.2-4.2c0-2.3-1.9-4.2-4.2-4.2c-2.3,0-4.2,1.9-4.2,4.2
		C11.7,18.4,13.6,20.3,15.9,20.3z M15.9,14.4c0.9,0,1.7,0.7,1.7,1.7s-0.7,1.7-1.7,1.7c-0.9,0-1.7-0.7-1.7-1.7S15,14.4,15.9,14.4z"/>
	<path class="st0" d="M14.2,24.9c0-2.3-1.9-4.2-4.2-4.2c-2.3,0-4.2,1.9-4.2,4.2c0,2.3,1.9,4.2,4.2,4.2
		C12.4,29.1,14.2,27.2,14.2,24.9z M8.4,24.9c0-0.9,0.7-1.7,1.7-1.7c0.9,0,1.7,0.7,1.7,1.7c0,0.9-0.7,1.7-1.7,1.7
		C9.1,26.6,8.4,25.8,8.4,24.9z"/>
	<path class="st0" d="M13,32.4c-2.3,0-4.2,1.9-4.2,4.2c0,2.3,1.9,4.2,4.2,4.2c2.3,0,4.2-1.9,4.2-4.2C17.2,34.3,15.3,32.4,13,32.4z
		 M13,38.3c-0.9,0-1.7-0.7-1.7-1.7s0.7-1.7,1.7-1.7c0.9,0,1.7,0.7,1.7,1.7S13.9,38.3,13,38.3z"/>
	<path class="st0" d="M49,0.6c-0.7-0.7-1.6-0.7-3-0.3c-0.9,0.3-1.9,0.9-3.2,1.7c-2.8,1.8-6.1,4.6-8.9,7.6l-0.1,0.1l-0.1-0.1
		C30.2,7.3,26,6.1,21.8,6.1c-2.2,0-4.5,0.3-6.7,1C4.7,10.4-1.7,21.2,0.4,32C2,40.4,8.6,47.3,17,49.1c2.7,0.6,5.4,0.7,8,0.3
		c2.3-0.3,4.1-1.9,4.8-4.1c0.7-2.3,0.2-4.7-1.5-6.4c-0.6-0.6-0.9-1.4-0.9-2.2s0.3-1.6,0.9-2.2c1.2-1.2,3.2-1.2,4.4,0
		c1.7,1.7,4.1,2.3,6.4,1.5c2.2-0.7,3.8-2.6,4.1-4.8c0.8-5.4-0.4-10.9-3.4-15.4l-0.1-0.1l0.1-0.1c2.3-2.1,5.5-5.6,7.6-8.8
		C49,4.6,50.4,2,49,0.6z M40.8,30.7c-0.2,1.3-1.1,2.4-2.4,2.8c-1.1,0.4-2.6,0.3-3.8-0.9c-1.1-1.1-2.5-1.7-4-1.7c0,0,0,0,0,0
		c-1.5,0-2.9,0.6-4,1.7c-1.1,1.1-1.7,2.5-1.7,4c0,1.5,0.6,2.9,1.7,4c1.2,1.2,1.2,2.8,0.9,3.8c-0.4,1.3-1.5,2.2-2.8,2.4
		c-0.9,0.1-1.9,0.2-2.9,0.2c-1.4,0-2.8-0.2-4.3-0.5C10.1,45,4.3,39,2.9,31.6c-1.2-6.5,0.7-12.8,5.3-17.3C12.7,9.7,19,7.7,25.5,8.9
		c2.2,0.4,4.5,1.3,6.4,2.5l0.2,0.1L32,11.7c-2.1,2.5-3.6,4.7-4.3,6.4l-0.1,0.2l-0.2,0c-2-0.6-4.1,0-5.6,1.4
		c-0.7,0.7-1.2,1.5-1.4,2.4c-0.5,1.6-1.9,2.8-3.7,3.1c-0.5,0.1-0.9,0.4-1,0.9c-0.1,0.5,0,0.9,0.3,1.3l0.4,0.4
		c1.8,1.8,4.2,2.8,6.7,2.8c2.5,0,4.9-1,6.7-2.8c1.5-1.5,2-3.7,1.4-5.8l-0.1-0.2l0.2-0.1c1.7-0.7,3.9-2.2,6.3-4.3l0.2-0.1l0.1,0.2
		C40.5,21.3,41.5,26,40.8,30.7z M28.1,25.9c-1.3,1.3-3.1,2-4.9,2c-1.2,0-2.4-0.3-3.4-0.9l-0.3-0.2l0.3-0.2c1.5-0.9,2.6-2.3,3.1-3.9
		c0.1-0.5,0.4-0.9,0.8-1.3c0.6-0.6,1.4-0.9,2.2-0.9c0.8,0,1.6,0.3,2.2,0.9C29.3,22.7,29.3,24.7,28.1,25.9z M41.5,10.1
		c-1.7,1.8-5,5.3-8.5,7.7c-1.1,0.7-2,1.3-2.7,1.6l-0.4,0.2l0.2-0.4c0.3-0.7,0.8-1.6,1.6-2.7c1.8-2.7,4.7-5.9,7.8-8.5l0.1-0.1
		l2.2,2.2L41.5,10.1z M46.7,3.1c-0.8,1.6-2.4,3.7-3.2,4.7L43.3,8l-1.9-1.9L41.6,6c1.1-0.8,3.2-2.4,4.9-3.1l0.5-0.2L46.7,3.1z"/>
</g>
</svg>
