<?xml version="1.0" encoding="utf-8"?>
<!-- Generator: Adobe Illustrator 22.0.0, SVG Export Plug-In . SVG Version: 6.00 Build 0)  -->
<svg version="1.1" id="Layer_1" xmlns="http://www.w3.org/2000/svg" xmlns:xlink="http://www.w3.org/1999/xlink" x="0px" y="0px"
	 viewBox="0 0 48.5 48.5" style="enable-background:new 0 0 48.5 48.5;" xml:space="preserve">
<style type="text/css">
	.st0{fill:#0A1E2B;}
</style>
<g>
	<path class="st0" d="M39.6,21c-0.5-0.5-1.3-0.5-1.7,0L23.7,35.2c-2.9,2.9-7.6,2.9-10.4,0c-2.9-2.9-2.9-7.6,0-10.4l14.2-14.2
		c0.2-0.2,0.4-0.5,0.4-0.9c0-0.3-0.1-0.6-0.4-0.9l-6.1-6.1c-0.2-0.2-0.6-0.4-0.9-0.4s-0.6,0.1-0.9,0.4c-0.4,0.4-12,12-14.2,14.2
		c-7.2,7.2-7.2,18.9,0,26.1c7.2,7.2,18.9,7.2,26.1,0l14.2-14.2c0.5-0.5,0.5-1.3,0-1.7L39.6,21z M20.5,5.4l4.3,4.3l-4.3,4.3l-4.3-4.3
		L20.5,5.4z M29.8,41.3c-3.1,3.1-7.2,4.7-11.3,4.7c-4.1,0-8.2-1.6-11.3-4.7c-6.2-6.2-6.2-16.4,0-22.6l7.2-7.2l4.3,4.3l-7.2,7.2
		c-1.9,1.9-2.9,4.3-2.9,7c0,2.6,1,5.1,2.9,7c3.8,3.8,10.1,3.8,13.9,0l7.2-7.2l4.3,4.3L29.8,41.3z M38.8,32.3L34.4,28l4.3-4.3
		l4.3,4.3L38.8,32.3z"/>
	<path class="st0" d="M48.3,0.5C48.1,0.2,47.7,0,47.4,0c-0.2,0-0.3,0-0.5,0.1L32.2,6.7c-0.3,0.1-0.6,0.5-0.6,0.8
		c-0.1,0.4,0,0.7,0.3,1l3.3,3.3l-5.3,5.3c-0.4,0.4-0.4,1-0.1,1.4c0.3,0.4,0.9,0.6,1.4,0.4l14.2-6.1c0.3-0.1,0.6-0.4,0.7-0.8
		c0.1-0.4,0-0.7-0.3-1l-3.3-3.3l5.8-5.8C48.5,1.5,48.6,0.9,48.3,0.5z M42.9,11.4l-7.4,3.2l2-2c0.2-0.2,0.3-0.5,0.3-0.8
		s-0.1-0.6-0.3-0.8L34.6,8l7.7-3.5L40,6.9c-0.2,0.2-0.3,0.5-0.3,0.8c0,0.3,0.1,0.6,0.3,0.8L42.9,11.4z"/>
</g>
</svg>
