<?xml version="1.0" encoding="utf-8"?>
<!-- Generator: Adobe Illustrator 22.0.0, SVG Export Plug-In . SVG Version: 6.00 Build 0)  -->
<svg version="1.1" id="Layer_1" xmlns="http://www.w3.org/2000/svg" xmlns:xlink="http://www.w3.org/1999/xlink" x="0px" y="0px"
	 viewBox="0 0 23.8 29.4" style="enable-background:new 0 0 23.8 29.4;" xml:space="preserve">
<style type="text/css">
	.st0{fill:#0A1E2B;}
</style>
<g>
	<path class="st0" d="M21.6,5.1C19.4,1.9,15.8,0,11.9,0c-4,0-7.5,1.9-9.7,5.1C-0.1,8.3-0.6,12.4,0.8,16c0.4,1,0.9,1.9,1.7,2.8
		l8.7,10.2c0.2,0.2,0.4,0.3,0.7,0.3s0.5-0.1,0.7-0.3l8.7-10.2C22.1,18,22.6,17,23,16C24.4,12.4,23.8,8.3,21.6,5.1z M21.3,15.4
		c-0.3,0.8-0.8,1.5-1.4,2.3l-8,9.4l-8-9.4c-0.6-0.7-1.1-1.5-1.4-2.3c-1.2-3.1-0.7-6.5,1.2-9.2c1.9-2.7,4.9-4.3,8.2-4.3
		s6.3,1.6,8.2,4.3C22,8.9,22.4,12.3,21.3,15.4z"/>
	<path class="st0" d="M11.9,6.2c-3.1,0-5.7,2.5-5.7,5.7c0,3.1,2.5,5.7,5.7,5.7s5.7-2.5,5.7-5.7C17.6,8.7,15,6.2,11.9,6.2z
		 M11.9,15.7C9.7,15.7,8,14,8,11.8S9.7,8,11.9,8s3.9,1.7,3.9,3.9S14,15.7,11.9,15.7z"/>
</g>
</svg>
