<?xml version="1.0" encoding="utf-8"?>
<!-- Generator: Adobe Illustrator 22.0.0, SVG Export Plug-In . SVG Version: 6.00 Build 0)  -->
<svg version="1.1" id="Layer_1" xmlns="http://www.w3.org/2000/svg" xmlns:xlink="http://www.w3.org/1999/xlink" x="0px" y="0px"
	 viewBox="0 0 27 27" style="enable-background:new 0 0 27 27;" xml:space="preserve">
<style type="text/css">
	.st0{fill:#0A1E2B;}
</style>
<g>
	<g>
		<path class="st0" d="M26.3,19.9l-3.4-3.4c-0.9-0.9-2.4-0.9-3.4,0l-1.5,1.5c-0.7,0.7-1.8,0.7-2.5,0l-6.6-6.6
			c-0.7-0.7-0.7-1.8,0-2.5c0.2-0.2,1-1,1.5-1.5c0.9-0.9,0.9-2.4,0-3.4L7.1,0.7c-0.9-0.9-2.4-0.9-3.4,0C3,1.4,2.8,1.6,2.5,1.9
			c-3.3,3.3-3.3,8.8,0,12.1L13,24.5c3.3,3.3,8.8,3.3,12.1,0l1.2-1.2C27.2,22.3,27.2,20.8,26.3,19.9L26.3,19.9z M4.8,1.8
			c0.3-0.3,0.8-0.3,1.1,0l3.4,3.3c0.3,0.3,0.3,0.8,0,1.1L8.8,6.8L4.3,2.4L4.8,1.8z M14.1,23.4L3.6,12.9C1,10.3,0.9,6.3,3.2,3.5
			L7.6,8c-1.2,1.3-1.1,3.4,0.1,4.6l6.6,6.6c0,0,0,0,0,0c1.3,1.3,3.3,1.3,4.6,0.1l4.5,4.5C20.7,26.1,16.7,26,14.1,23.4L14.1,23.4z
			 M25.2,22.2l-0.6,0.6l-4.5-4.5l0.6-0.6c0.3-0.3,0.8-0.3,1.1,0l3.4,3.4C25.5,21.3,25.5,21.8,25.2,22.2L25.2,22.2z M25.2,22.2"/>
	</g>
</g>
</svg>
