<?xml version="1.0" encoding="utf-8"?>
<!-- Generator: Adobe Illustrator 22.0.0, SVG Export Plug-In . SVG Version: 6.00 Build 0)  -->
<svg version="1.1" id="Layer_1" xmlns="http://www.w3.org/2000/svg" xmlns:xlink="http://www.w3.org/1999/xlink" x="0px" y="0px"
	 viewBox="0 0 28 49.6" style="enable-background:new 0 0 28 49.6;" xml:space="preserve">
<style type="text/css">
	.st0{fill:#0A1E2B;}
</style>
<path class="st0" d="M19.9,12c0.1-0.1,0.5-0.4,1.8-0.4l4.1,0c1.2,0,2.2-1,2.2-2.2V2.2C28,1,27,0,25.8,0l-6.1,0
	c-3.7,0-6.9,1.2-9.1,3.5c-2.2,2.3-3.4,5.5-3.4,9.3v4.1H2.2c-1.2,0-2.2,1-2.2,2.2v7.7c0,1.2,1,2.2,2.2,2.2h4.9v18.3
	c0,1.2,1,2.2,2.2,2.2h8c1.2,0,2.2-1,2.2-2.2V29.1h5.9c1.2,0,2.2-1,2.2-2.2l0-7.7c0-0.8-0.4-1.6-1.1-1.9c-0.3-0.2-0.7-0.3-1.1-0.3
	h-5.9v-3.3C19.6,12.8,19.7,12.3,19.9,12z M25.8,2.7L25.8,2.7L25.8,2.7z M18.4,19.5h6.7l0,7.1h-6.7c-0.8,0-1.4,0.6-1.4,1.4v19.1H9.6
	V28c0-0.8-0.6-1.4-1.4-1.4H2.5v-7.1h5.7c0.8,0,1.4-0.6,1.4-1.4v-5.2c0-6.4,3.8-10.3,10-10.3l5.8,0v6.6l-3.8,0
	c-1.1,0-2.7,0.1-3.7,1.3c-0.8,0.9-0.9,2.2-0.9,3.3V18C17,18.8,17.7,19.5,18.4,19.5z"/>
</svg>
